<?xml version="1.0" standalone="no"?>
<!DOCTYPE svg PUBLIC "-//W3C//DTD SVG 20010904//EN"
 "http://www.w3.org/TR/2001/REC-SVG-20010904/DTD/svg10.dtd">
<svg version="1.0" xmlns="http://www.w3.org/2000/svg"
 width="200.000000pt" height="73.000000pt" viewBox="0 0 200.000000 73.000000"
 preserveAspectRatio="xMidYMid meet">

<g transform="translate(0.000000,73.000000) scale(0.100000,-0.100000)"
fill="#000000" stroke="none">
<path d="M997 653 c-4 -3 -8 -22 -8 -42 -2 -30 -3 -32 -6 -8 -5 32 -1 31 -76
10 -69 -19 -93 -46 -78 -87 6 -14 15 -26 21 -26 5 0 10 -5 10 -12 0 -9 -3 -9
-12 0 -26 26 -27 7 -2 -85 2 -7 15 -13 29 -13 18 0 25 5 25 19 0 31 29 52 64
49 26 -2 32 -8 36 -33 4 -21 12 -31 26 -33 26 -4 33 11 41 90 5 55 16 78 30
64 3 -3 0 -12 -7 -21 -31 -37 30 -64 63 -27 24 26 21 61 -8 104 -20 29 -34 38
-75 47 -60 13 -65 13 -73 4z m133 -133 c0 -11 -7 -20 -15 -20 -17 0 -18 2 -9
24 9 23 24 20 24 -4z"/>
<path d="M114 255 c6 -18 -20 -96 -37 -107 -17 -10 18 -22 40 -13 12 5 14 9 6
12 -20 7 -2 33 22 33 26 0 46 -21 27 -28 -20 -6 -3 -22 24 -22 13 0 24 1 24 3
0 1 -11 24 -25 51 -14 28 -23 58 -19 68 4 15 0 18 -31 18 -29 0 -36 -3 -31
-15z m46 -41 c0 -8 -7 -14 -15 -14 -17 0 -18 2 -9 24 7 18 24 12 24 -10z"/>
<path d="M260 260 c0 -5 5 -10 10 -10 6 0 10 -22 10 -50 0 -27 -4 -50 -10 -50
-5 0 -10 -4 -10 -10 0 -5 14 -10 30 -10 29 0 40 13 20 25 -11 7 -14 48 -4 58
4 3 19 -11 35 -32 43 -60 49 -59 49 3 0 30 5 58 10 61 20 12 9 25 -20 25 -16
0 -30 -4 -30 -10 0 -5 5 -10 10 -10 6 0 10 -15 10 -32 l0 -33 -36 43 c-33 38
-74 56 -74 32z"/>
<path d="M460 261 c0 -6 5 -13 10 -16 16 -10 12 -85 -5 -91 -8 -4 -12 -10 -9
-15 7 -12 64 -11 64 1 0 6 -4 10 -10 10 -5 0 -10 23 -10 50 0 28 5 50 10 50 6
0 10 5 10 10 0 6 -13 10 -30 10 -16 0 -30 -4 -30 -9z"/>
<path d="M560 250 c0 -11 5 -20 10 -20 6 0 10 5 10 10 0 6 7 10 15 10 11 0 15
-12 15 -50 0 -27 -4 -50 -10 -50 -5 0 -10 -4 -10 -10 0 -12 57 -13 64 -1 3 5
-1 11 -9 15 -18 7 -21 81 -3 92 6 4 14 2 16 -4 6 -19 22 -14 22 8 0 18 -7 20
-60 20 -53 0 -60 -2 -60 -20z"/>
<path d="M734 255 c6 -17 -24 -105 -37 -105 -4 0 -5 -4 -2 -10 3 -5 17 -10 31
-10 13 0 24 5 24 10 0 6 -4 10 -10 10 -5 0 -7 7 -4 15 4 8 16 15 29 15 13 0
25 -7 29 -15 3 -8 1 -15 -5 -15 -6 0 -7 -4 -4 -10 3 -5 17 -10 31 -10 13 0 24
5 24 10 0 6 -4 10 -8 10 -11 0 -37 79 -34 103 1 13 -6 17 -34 17 -28 0 -35 -3
-30 -15z m46 -47 c0 -5 -7 -8 -15 -8 -15 0 -20 21 -8 33 7 7 23 -11 23 -25z"/>
<path d="M955 260 c-3 -5 -1 -10 4 -10 6 0 11 -21 11 -50 0 -29 -5 -50 -11
-50 -5 0 -7 -4 -4 -10 8 -13 54 -13 94 1 52 18 56 100 5 119 -33 13 -91 13
-99 0z m97 -27 c10 -9 18 -23 18 -31 0 -22 -30 -52 -52 -52 -15 0 -18 8 -18
50 0 55 16 65 52 33z"/>
<path d="M1150 250 c-20 -20 -26 -65 -12 -86 13 -21 52 -34 77 -28 30 7 45 31
45 73 0 55 -70 81 -110 41z m78 -12 c19 -19 15 -66 -7 -78 -11 -5 -24 -10 -30
-10 -16 0 -41 30 -41 50 0 39 52 64 78 38z"/>
<path d="M1280 260 c0 -5 5 -10 10 -10 6 0 10 -22 10 -50 0 -27 -4 -50 -10
-50 -5 0 -10 -4 -10 -10 0 -5 14 -10 30 -10 34 0 34 0 19 34 -7 14 -9 32 -5
42 5 13 13 7 42 -31 20 -26 40 -43 44 -38 4 4 10 36 12 71 4 59 3 62 -18 62
-25 0 -41 -16 -23 -22 6 -2 9 -17 7 -33 l-3 -30 -30 42 c-20 28 -38 43 -52 43
-13 0 -23 -4 -23 -10z"/>
<path d="M1472 247 c-27 -29 -28 -57 -1 -90 17 -22 27 -26 65 -25 43 2 44 3
44 35 0 30 -3 33 -31 33 -17 0 -28 -4 -24 -10 3 -5 13 -10 21 -10 24 0 10 -25
-15 -28 -30 -5 -51 15 -51 47 0 47 43 68 70 36 9 -11 16 -13 23 -6 17 17 -12
41 -47 41 -21 0 -40 -8 -54 -23z"/>
<path d="M1620 260 c0 -5 5 -10 10 -10 6 0 10 -22 10 -50 0 -27 -4 -50 -10
-50 -5 0 -10 -4 -10 -10 0 -5 14 -10 30 -10 29 0 41 15 18 22 -7 3 -9 12 -4
23 6 18 9 16 32 -13 14 -18 32 -32 40 -32 19 0 18 6 -6 30 -19 19 -19 22 -5
43 13 21 13 25 -1 45 -12 17 -25 22 -60 22 -24 0 -44 -4 -44 -10z m85 -30 c0
-8 -10 -16 -22 -18 -18 -3 -23 2 -23 18 0 16 5 21 23 18 12 -2 22 -10 22 -18z"/>
<path d="M1780 260 c0 -5 5 -10 10 -10 6 0 10 -22 10 -50 0 -27 -4 -50 -10
-50 -5 0 -10 -4 -10 -10 0 -5 25 -10 55 -10 48 0 55 2 55 20 0 11 -4 20 -10
20 -5 0 -10 -4 -10 -10 0 -5 -9 -10 -20 -10 -28 0 -26 36 3 45 l22 8 -22 4
c-30 6 -32 43 -3 43 11 0 20 -4 20 -10 0 -5 5 -10 10 -10 6 0 10 9 10 20 0 18
-7 20 -55 20 -30 0 -55 -4 -55 -10z"/>
</g>
</svg>
