<?xml version="1.0" standalone="no"?>
<!DOCTYPE svg PUBLIC "-//W3C//DTD SVG 20010904//EN"
 "http://www.w3.org/TR/2001/REC-SVG-20010904/DTD/svg10.dtd">
<svg version="1.0" xmlns="http://www.w3.org/2000/svg"
 width="30.000000pt" height="30.000000pt" viewBox="0 0 30.000000 30.000000"
 preserveAspectRatio="xMidYMid meet">

<g transform="translate(0.000000,30.000000) scale(0.100000,-0.100000)"
fill="#000000" stroke="none">
<path d="M112 248 c-20 -20 -14 -56 13 -74 23 -15 27 -15 50 0 27 18 31 36 15
67 -12 22 -59 26 -78 7z"/>
<path d="M68 104 c-19 -10 -28 -23 -28 -39 l0 -25 110 0 110 0 0 25 c0 35 -53
62 -87 44 -19 -10 -28 -10 -43 -1 -24 15 -29 15 -62 -4z"/>
</g>
</svg>
