<?xml version="1.0" standalone="no"?>
<!DOCTYPE svg PUBLIC "-//W3C//DTD SVG 20010904//EN"
 "http://www.w3.org/TR/2001/REC-SVG-20010904/DTD/svg10.dtd">
<svg version="1.0" xmlns="http://www.w3.org/2000/svg"
 width="30.000000pt" height="30.000000pt" viewBox="0 0 30.000000 30.000000"
 preserveAspectRatio="xMidYMid meet">

<g transform="translate(0.000000,30.000000) scale(0.100000,-0.100000)"
fill="#000000" stroke="none">
<path d="M58 284 c-30 -16 -58 -61 -58 -94 0 -29 26 -76 52 -94 25 -18 80 -21
108 -6 15 8 27 1 67 -41 41 -43 51 -49 61 -36 10 12 3 22 -38 61 -42 39 -49
50 -40 66 5 10 10 34 10 52 0 80 -90 132 -162 92z m85 -26 c52 -27 62 -83 22
-123 -39 -40 -96 -32 -120 16 -21 40 -19 57 14 90 32 31 50 35 84 17z"/>
</g>
</svg>
