<svg width="69" height="140" viewBox="0 0 69 140" fill="none" xmlns="http://www.w3.org/2000/svg">
<g id="Group 8">
<g id="Group">
<path id="Vector" d="M64.3308 137.243C64.5308 136.143 65.6308 135.343 66.7308 135.543C67.8308 135.743 68.6308 136.843 68.4308 137.943C68.2308 139.043 67.1308 139.843 66.0308 139.643C64.8308 139.443 64.1308 138.343 64.3308 137.243Z" fill="#5D3617"/>
<path id="Vector_2" d="M48.2308 137.243C48.4308 136.143 49.5308 135.343 50.6308 135.543C51.7308 135.743 52.5308 136.843 52.3308 137.943C52.1308 139.043 51.0308 139.843 49.9308 139.643C48.8308 139.443 48.0308 138.343 48.2308 137.243Z" fill="#5D3617"/>
<path id="Vector_3" d="M32.2308 137.243C32.4308 136.143 33.5308 135.343 34.6308 135.543C35.7308 135.743 36.5308 136.843 36.3308 137.943C36.1308 139.043 35.0308 139.843 33.9308 139.643C32.7308 139.443 31.9308 138.343 32.2308 137.243Z" fill="#5D3617"/>
<path id="Vector_4" d="M16.1308 137.243C16.3308 136.143 17.4308 135.343 18.5308 135.543C19.6308 135.743 20.4308 136.843 20.2308 137.943C20.0308 139.043 18.9308 139.843 17.8308 139.643C16.6308 139.443 15.9308 138.343 16.1308 137.243Z" fill="#5D3617"/>
<path id="Vector_5" d="M0.030782 137.243C0.230782 136.143 1.33081 135.343 2.43081 135.543C3.53081 135.743 4.33076 136.843 4.13076 137.943C3.93076 139.043 2.83079 139.843 1.73079 139.643C0.630795 139.443 -0.169218 138.343 0.030782 137.243Z" fill="#5D3617"/>
</g>
<g id="Group_2">
<path id="Vector_6" d="M64.3308 123.743C64.5308 122.643 65.6308 121.843 66.7308 122.043C67.8308 122.243 68.6308 123.343 68.4308 124.443C68.2308 125.543 67.1308 126.343 66.0308 126.143C64.8308 125.943 64.1308 124.843 64.3308 123.743Z" fill="#5D3617"/>
<path id="Vector_7" d="M48.2308 123.743C48.4308 122.643 49.5308 121.843 50.6308 122.043C51.7308 122.243 52.5308 123.343 52.3308 124.443C52.1308 125.543 51.0308 126.343 49.9308 126.143C48.8308 125.943 48.0308 124.843 48.2308 123.743Z" fill="#5D3617"/>
<path id="Vector_8" d="M32.2308 123.743C32.4308 122.643 33.5308 121.843 34.6308 122.043C35.7308 122.243 36.5308 123.343 36.3308 124.443C36.1308 125.543 35.0308 126.343 33.9308 126.143C32.7308 125.943 31.9308 124.843 32.2308 123.743Z" fill="#5D3617"/>
<path id="Vector_9" d="M16.1308 123.743C16.3308 122.643 17.4308 121.843 18.5308 122.043C19.6308 122.243 20.4308 123.343 20.2308 124.443C20.0308 125.543 18.9308 126.343 17.8308 126.143C16.6308 125.943 15.9308 124.843 16.1308 123.743Z" fill="#5D3617"/>
<path id="Vector_10" d="M0.030782 123.743C0.230782 122.643 1.33081 121.843 2.43081 122.043C3.53081 122.243 4.33076 123.343 4.13076 124.443C3.93076 125.543 2.83079 126.343 1.73079 126.143C0.630795 125.943 -0.169218 124.843 0.030782 123.743Z" fill="#5D3617"/>
</g>
<g id="Group_3">
<path id="Vector_11" d="M64.3308 110.143C64.5308 109.043 65.6308 108.243 66.7308 108.443C67.8308 108.643 68.6308 109.743 68.4308 110.843C68.2308 111.943 67.1308 112.743 66.0308 112.543C64.8308 112.343 64.1308 111.343 64.3308 110.143Z" fill="#5D3617"/>
<path id="Vector_12" d="M48.2308 110.143C48.4308 109.043 49.5308 108.243 50.6308 108.443C51.7308 108.643 52.5308 109.743 52.3308 110.843C52.1308 111.943 51.0308 112.743 49.9308 112.543C48.8308 112.343 48.0308 111.343 48.2308 110.143Z" fill="#5D3617"/>
<path id="Vector_13" d="M32.2308 110.143C32.4308 109.043 33.5308 108.243 34.6308 108.443C35.7308 108.643 36.5308 109.743 36.3308 110.843C36.1308 111.943 35.0308 112.743 33.9308 112.543C32.7308 112.343 31.9308 111.343 32.2308 110.143Z" fill="#5D3617"/>
<path id="Vector_14" d="M16.1308 110.143C16.3308 109.043 17.4308 108.243 18.5308 108.443C19.6308 108.643 20.4308 109.743 20.2308 110.843C20.0308 111.943 18.9308 112.743 17.8308 112.543C16.6308 112.343 15.9308 111.343 16.1308 110.143Z" fill="#5D3617"/>
<path id="Vector_15" d="M0.030782 110.143C0.230782 109.043 1.33081 108.243 2.43081 108.443C3.53081 108.643 4.33076 109.743 4.13076 110.843C3.93076 111.943 2.83079 112.743 1.73079 112.543C0.630795 112.343 -0.169218 111.343 0.030782 110.143Z" fill="#5D3617"/>
</g>
<g id="Group_4">
<path id="Vector_16" d="M64.3308 96.643C64.5308 95.543 65.6308 94.743 66.7308 94.943C67.8308 95.143 68.6308 96.243 68.4308 97.343C68.2308 98.443 67.1308 99.243 66.0308 99.043C64.8308 98.843 64.1308 97.743 64.3308 96.643Z" fill="#5D3617"/>
<path id="Vector_17" d="M48.2308 96.643C48.4308 95.543 49.5308 94.743 50.6308 94.943C51.7308 95.143 52.5308 96.243 52.3308 97.343C52.1308 98.443 51.0308 99.243 49.9308 99.043C48.8308 98.843 48.0308 97.743 48.2308 96.643Z" fill="#5D3617"/>
<path id="Vector_18" d="M32.2308 96.643C32.4308 95.543 33.5308 94.743 34.6308 94.943C35.7308 95.143 36.5308 96.243 36.3308 97.343C36.1308 98.443 35.0308 99.243 33.9308 99.043C32.7308 98.843 31.9308 97.743 32.2308 96.643Z" fill="#5D3617"/>
<path id="Vector_19" d="M16.1308 96.643C16.3308 95.543 17.4308 94.743 18.5308 94.943C19.6308 95.143 20.4308 96.243 20.2308 97.343C20.0308 98.443 18.9308 99.243 17.8308 99.043C16.6308 98.843 15.9308 97.743 16.1308 96.643Z" fill="#5D3617"/>
<path id="Vector_20" d="M0.030782 96.643C0.230782 95.543 1.33081 94.743 2.43081 94.943C3.53081 95.143 4.33076 96.243 4.13076 97.343C3.93076 98.443 2.83079 99.243 1.73079 99.043C0.630795 98.843 -0.169218 97.743 0.030782 96.643Z" fill="#5D3617"/>
</g>
<g id="Group_5">
<path id="Vector_21" d="M64.3308 83.143C64.5308 82.043 65.6308 81.243 66.7308 81.443C67.8308 81.643 68.6308 82.743 68.4308 83.843C68.2308 84.943 67.1308 85.743 66.0308 85.543C64.8308 85.343 64.1308 84.243 64.3308 83.143Z" fill="#5D3617"/>
<path id="Vector_22" d="M48.2308 83.143C48.4308 82.043 49.5308 81.243 50.6308 81.443C51.7308 81.643 52.5308 82.743 52.3308 83.843C52.1308 84.943 51.0308 85.743 49.9308 85.543C48.8308 85.343 48.0308 84.243 48.2308 83.143Z" fill="#5D3617"/>
<path id="Vector_23" d="M32.2308 83.143C32.4308 82.043 33.5308 81.243 34.6308 81.443C35.7308 81.643 36.5308 82.743 36.3308 83.843C36.1308 84.943 35.0308 85.743 33.9308 85.543C32.7308 85.343 31.9308 84.243 32.2308 83.143Z" fill="#5D3617"/>
<path id="Vector_24" d="M16.1308 83.143C16.3308 82.043 17.4308 81.243 18.5308 81.443C19.6308 81.643 20.4308 82.743 20.2308 83.843C20.0308 84.943 18.9308 85.743 17.8308 85.543C16.6308 85.343 15.9308 84.243 16.1308 83.143Z" fill="#5D3617"/>
<path id="Vector_25" d="M0.0307744 83.143C0.230774 82.043 1.3308 81.243 2.4308 81.443C3.5308 81.643 4.33075 82.743 4.13075 83.843C3.93075 84.943 2.83079 85.743 1.73079 85.543C0.630787 85.343 -0.169225 84.243 0.0307744 83.143Z" fill="#5D3617"/>
</g>
<g id="Group_6">
<path id="Vector_26" d="M64.3308 69.5431C64.5308 68.4431 65.6308 67.6432 66.7308 67.8432C67.8308 68.0432 68.6308 69.1431 68.4308 70.2431C68.2308 71.3431 67.1308 72.1431 66.0308 71.9431C64.8308 71.8431 64.1308 70.7431 64.3308 69.5431Z" fill="#5D3617"/>
<path id="Vector_27" d="M48.2308 69.5431C48.4308 68.4431 49.5308 67.6432 50.6308 67.8432C51.7308 68.0432 52.5308 69.1431 52.3308 70.2431C52.1308 71.3431 51.0308 72.1431 49.9308 71.9431C48.8308 71.8431 48.0308 70.7431 48.2308 69.5431Z" fill="#5D3617"/>
<path id="Vector_28" d="M32.2308 69.5431C32.4308 68.4431 33.5308 67.6432 34.6308 67.8432C35.7308 68.0432 36.5308 69.1431 36.3308 70.2431C36.1308 71.3431 35.0308 72.1431 33.9308 71.9431C32.7308 71.8431 31.9308 70.7431 32.2308 69.5431Z" fill="#5D3617"/>
<path id="Vector_29" d="M16.1308 69.5431C16.3308 68.4431 17.4308 67.6432 18.5308 67.8432C19.6308 68.0432 20.4308 69.1431 20.2308 70.2431C20.0308 71.3431 18.9308 72.1431 17.8308 71.9431C16.6308 71.8431 15.9308 70.7431 16.1308 69.5431Z" fill="#5D3617"/>
<path id="Vector_30" d="M0.0307744 69.5431C0.230774 68.4431 1.3308 67.6432 2.4308 67.8432C3.5308 68.0432 4.33075 69.1431 4.13075 70.2431C3.93075 71.3431 2.83079 72.1431 1.73079 71.9431C0.630787 71.8431 -0.169225 70.7431 0.0307744 69.5431Z" fill="#5D3617"/>
</g>
<g id="Group_7">
<path id="Vector_31" d="M64.3308 56.0431C64.5308 54.9431 65.6308 54.1432 66.7308 54.3432C67.8308 54.5432 68.6308 55.6431 68.4308 56.7431C68.2308 57.8431 67.1308 58.6431 66.0308 58.4431C64.8308 58.2431 64.1308 57.1431 64.3308 56.0431Z" fill="#5D3617"/>
<path id="Vector_32" d="M48.2308 56.0431C48.4308 54.9431 49.5308 54.1432 50.6308 54.3432C51.7308 54.5432 52.5308 55.6431 52.3308 56.7431C52.1308 57.8431 51.0308 58.6431 49.9308 58.4431C48.8308 58.2431 48.0308 57.1431 48.2308 56.0431Z" fill="#5D3617"/>
<path id="Vector_33" d="M32.2308 56.0431C32.4308 54.9431 33.5308 54.1432 34.6308 54.3432C35.7308 54.5432 36.5308 55.6431 36.3308 56.7431C36.1308 57.8431 35.0308 58.6431 33.9308 58.4431C32.7308 58.2431 31.9308 57.1431 32.2308 56.0431Z" fill="#5D3617"/>
<path id="Vector_34" d="M16.1308 56.0431C16.3308 54.9431 17.4308 54.1432 18.5308 54.3432C19.6308 54.5432 20.4308 55.6431 20.2308 56.7431C20.0308 57.8431 18.9308 58.6431 17.8308 58.4431C16.6308 58.2431 15.9308 57.1431 16.1308 56.0431Z" fill="#5D3617"/>
<path id="Vector_35" d="M0.0307744 56.0431C0.230774 54.9431 1.3308 54.1432 2.4308 54.3432C3.5308 54.5432 4.33075 55.6431 4.13075 56.7431C3.93075 57.8431 2.83079 58.6431 1.73079 58.4431C0.630787 58.2431 -0.169225 57.1431 0.0307744 56.0431Z" fill="#5D3617"/>
</g>
<g id="Group_8">
<path id="Vector_36" d="M64.3308 42.5431C64.5308 41.4431 65.6308 40.6432 66.7308 40.8432C67.8308 41.0432 68.6308 42.1431 68.4308 43.2431C68.2308 44.3431 67.1308 45.1431 66.0308 44.9431C64.8308 44.7431 64.1308 43.6431 64.3308 42.5431Z" fill="#5D3617"/>
<path id="Vector_37" d="M48.2308 42.5431C48.4308 41.4431 49.5308 40.6432 50.6308 40.8432C51.7308 41.0432 52.5308 42.1431 52.3308 43.2431C52.1308 44.3431 51.0308 45.1431 49.9308 44.9431C48.8308 44.7431 48.0308 43.6431 48.2308 42.5431Z" fill="#5D3617"/>
<path id="Vector_38" d="M32.2308 42.5431C32.4308 41.4431 33.5308 40.6432 34.6308 40.8432C35.7308 41.0432 36.5308 42.1431 36.3308 43.2431C36.1308 44.3431 35.0308 45.1431 33.9308 44.9431C32.7308 44.7431 31.9308 43.6431 32.2308 42.5431Z" fill="#5D3617"/>
<path id="Vector_39" d="M16.1308 42.5431C16.3308 41.4431 17.4308 40.6432 18.5308 40.8432C19.6308 41.0432 20.4308 42.1431 20.2308 43.2431C20.0308 44.3431 18.9308 45.1431 17.8308 44.9431C16.6308 44.7431 15.9308 43.6431 16.1308 42.5431Z" fill="#5D3617"/>
<path id="Vector_40" d="M0.0307744 42.5431C0.230774 41.4431 1.3308 40.6432 2.4308 40.8432C3.5308 41.0432 4.33075 42.1431 4.13075 43.2431C3.93075 44.3431 2.83079 45.1431 1.73079 44.9431C0.630787 44.7431 -0.169225 43.6431 0.0307744 42.5431Z" fill="#5D3617"/>
</g>
<g id="Group_9">
<path id="Vector_41" d="M64.3308 29.0429C64.5308 27.9429 65.6308 27.1429 66.7308 27.3429C67.8308 27.5429 68.6308 28.6429 68.4308 29.7429C68.2308 30.8429 67.1308 31.6429 66.0308 31.4429C64.8308 31.2429 64.1308 30.1429 64.3308 29.0429Z" fill="#5D3617"/>
<path id="Vector_42" d="M50.3307 27.2429C49.1709 27.2429 48.2308 28.1831 48.2308 29.3429C48.2308 30.5027 49.1709 31.4429 50.3307 31.4429C51.4905 31.4429 52.4308 30.5027 52.4308 29.3429C52.4308 28.1831 51.4905 27.2429 50.3307 27.2429Z" fill="#5D3617"/>
<path id="Vector_43" d="M33.9845 27.2828C32.8354 27.4393 32.0308 28.4979 32.1873 29.647C32.3439 30.7961 33.4024 31.6007 34.5515 31.4441C35.7007 31.2876 36.5053 30.2291 36.3487 29.08C36.1921 27.9309 35.1337 27.1262 33.9845 27.2828Z" fill="#5D3617"/>
<path id="Vector_44" d="M16.1308 29.0429C16.3308 27.9429 17.4308 27.1429 18.5308 27.3429C19.6308 27.5429 20.4308 28.6429 20.2308 29.7429C20.0308 30.8429 18.9308 31.6429 17.8308 31.4429C16.6308 31.2429 15.9308 30.1429 16.1308 29.0429Z" fill="#5D3617"/>
<path id="Vector_45" d="M0.0307744 29.0429C0.230774 27.9429 1.3308 27.1429 2.4308 27.3429C3.5308 27.5429 4.33075 28.6429 4.13075 29.7429C3.93075 30.8429 2.83079 31.6429 1.73079 31.4429C0.630787 31.2429 -0.169225 30.1429 0.0307744 29.0429Z" fill="#5D3617"/>
</g>
<g id="Group_10">
<path id="Vector_46" d="M64.3308 15.4433C64.5308 14.3433 65.6308 13.5432 66.7308 13.7432C67.8308 13.9432 68.6308 15.0433 68.4308 16.1433C68.2308 17.2433 67.1308 18.0433 66.0308 17.8433C64.8308 17.6433 64.1308 16.6433 64.3308 15.4433Z" fill="#5D3617"/>
<path id="Vector_47" d="M50.3307 13.7431C49.1709 13.7431 48.2308 14.6833 48.2308 15.8431C48.2308 17.0029 49.1709 17.9431 50.3307 17.9431C51.4905 17.9431 52.4308 17.0029 52.4308 15.8431C52.4308 14.6833 51.4905 13.7431 50.3307 13.7431Z" fill="#5D3617"/>
<path id="Vector_48" d="M33.9888 13.7833C32.8397 13.9398 32.035 14.9984 32.1916 16.1475C32.3482 17.2966 33.4067 18.1012 34.5558 17.9446C35.7049 17.7881 36.5095 16.7296 36.353 15.5805C36.1964 14.4313 35.1379 13.6267 33.9888 13.7833Z" fill="#5D3617"/>
<path id="Vector_49" d="M16.1307 15.4433C16.3307 14.3433 17.4308 13.5432 18.5308 13.7432C19.6308 13.9432 20.4308 15.0433 20.2308 16.1433C20.0308 17.2433 18.9308 18.0433 17.8308 17.8433C16.6308 17.6433 15.9307 16.6433 16.1307 15.4433Z" fill="#5D3617"/>
<path id="Vector_50" d="M0.0307744 15.4433C0.230774 14.3433 1.3308 13.5432 2.4308 13.7432C3.5308 13.9432 4.33075 15.0433 4.13075 16.1433C3.93075 17.2433 2.83079 18.0433 1.73079 17.8433C0.630787 17.6433 -0.169225 16.6433 0.0307744 15.4433Z" fill="#5D3617"/>
</g>
<g id="Group_11">
<path id="Vector_51" d="M64.3308 1.94326C64.5308 0.84326 65.6308 0.0432479 66.7308 0.243248C67.8308 0.443248 68.6308 1.54327 68.4308 2.64327C68.2308 3.74327 67.1308 4.54328 66.0308 4.34328C64.8308 4.14328 64.1308 3.04326 64.3308 1.94326Z" fill="#5D3617"/>
<path id="Vector_52" d="M50.3307 0.243103C49.1709 0.243103 48.2308 1.18334 48.2308 2.34314C48.2308 3.50294 49.1709 4.44312 50.3307 4.44312C51.4905 4.44312 52.4308 3.50294 52.4308 2.34314C52.4308 1.18334 51.4905 0.243103 50.3307 0.243103Z" fill="#5D3617"/>
<path id="Vector_53" d="M33.9931 0.283746C32.844 0.440319 32.0394 1.49884 32.1959 2.64797C32.3525 3.7971 33.411 4.60169 34.5601 4.44512C35.7093 4.28855 36.5139 3.23009 36.3573 2.08097C36.2007 0.931837 35.1423 0.127173 33.9931 0.283746Z" fill="#5D3617"/>
<path id="Vector_54" d="M16.1307 1.94326C16.3307 0.84326 17.4308 0.0432479 18.5308 0.243248C19.6308 0.443248 20.4308 1.54327 20.2308 2.64327C20.0308 3.74327 18.9308 4.54328 17.8308 4.34328C16.6308 4.14328 15.9307 3.04326 16.1307 1.94326Z" fill="#5D3617"/>
<path id="Vector_55" d="M0.0307668 1.94326C0.230767 0.84326 1.33079 0.0432479 2.43079 0.243248C3.53079 0.443248 4.33074 1.54327 4.13074 2.64327C3.93074 3.74327 2.83078 4.54328 1.73078 4.34328C0.630779 4.14328 -0.169233 3.04326 0.0307668 1.94326Z" fill="#5D3617"/>
</g>
</g>
</svg>
